g ArcPro
v -34.49 0.0005264282 -3.069813
v 34.49 0.0005264282 3.069813
v 34.49 0.0005264282 -3.069813
v -34.49 0.0005264282 3.069813
v -34.49 17.50051 3.069813
v -34.49 0.0005264282 -3.069813
v -34.49 17.50051 -3.069813
v -34.49 0.0005264282 3.069813
v -34.49 17.50051 -3.069813
v -32.848 16.67635 3.069813
v -34.49 17.50051 3.069813
v -32.848 16.67635 -3.069813
v -31.20494 15.87325 3.069813
v -31.20494 15.87325 -3.069813
v -29.56294 15.08908 3.069813
v -29.56294 15.08908 -3.069813
v -27.92093 14.32492 3.069813
v -27.92093 14.32492 -3.069813
v -26.27787 13.5818 3.069813
v -26.27787 13.5818 -3.069813
v -24.63587 12.85764 3.069813
v -24.63587 12.85764 -3.069813
v -22.99281 12.15242 3.069813
v -22.99281 12.15242 -3.069813
v -21.3508 11.46825 3.069813
v -21.3508 11.46825 -3.069813
v -19.7088 10.80408 3.069813
v -19.7088 10.80408 -3.069813
v -18.06574 10.15886 3.069813
v -18.06574 10.15886 -3.069813
v -16.42374 9.53363 3.069813
v -16.42374 9.53363 -3.069813
v -14.78173 8.928402 3.069813
v -14.78173 8.928402 -3.069813
v -13.13867 8.343178 3.069813
v -13.13867 8.343178 -3.069813
v -11.49667 7.777946 3.069813
v -11.49667 7.777946 -3.069813
v -9.854664 7.231667 3.069813
v -9.854664 7.231667 -3.069813
v -8.211605 6.706432 3.069813
v -8.211605 6.706432 -3.069813
v -6.569599 6.20015 3.069813
v -6.569599 6.20015 -3.069813
v -4.927593 5.713863 3.069813
v -4.927593 5.713863 -3.069813
v -3.284538 5.247574 3.069813
v -3.284538 5.247574 -3.069813
v -1.642532 4.801289 3.069813
v -1.642532 4.801289 -3.069813
v -0.0005264282 4.374996 3.069813
v -0.0005264282 4.374996 -3.069813
v 1.642532 3.968704 3.069813
v 1.642532 3.968704 -3.069813
v 3.284536 3.58136 3.069813
v 3.284536 3.58136 -3.069813
v 4.927593 3.214016 3.069813
v 4.927593 3.214016 -3.069813
v 6.569599 2.866669 3.069813
v 6.569599 2.866669 -3.069813
v 8.211603 2.539318 3.069813
v 8.211603 2.539318 -3.069813
v 9.854662 2.231972 3.069813
v 9.854662 2.231972 -3.069813
v 11.49667 1.944618 3.069813
v 11.49667 1.944618 -3.069813
v 13.13867 1.676216 3.069813
v 13.13867 1.676216 -3.069813
v 14.78173 1.42886 3.069813
v 14.78173 1.42886 -3.069813
v 16.42373 1.200455 3.069813
v 16.42373 1.200455 -3.069813
v 18.06574 0.9920464 3.069813
v 18.06574 0.9920464 -3.069813
v 19.7088 0.8036346 3.069813
v 19.7088 0.8036346 -3.069813
v 21.3508 0.6352234 3.069813
v 21.3508 0.6352234 -3.069813
v 22.99281 0.4857597 3.069813
v 22.99281 0.4857597 -3.069813
v 24.63586 0.3573456 3.069813
v 24.63586 0.3573456 -3.069813
v 26.27787 0.247879 3.069813
v 26.27787 0.247879 -3.069813
v 27.92093 0.1584129 3.069813
v 27.92093 0.1584129 -3.069813
v 29.56293 0.08894348 3.069813
v 29.56293 0.08894348 -3.069813
v 31.20494 0.03947067 3.069813
v 31.20494 0.03947067 -3.069813
v 32.848 0.009998322 3.069813
v 32.848 0.009998322 -3.069813
v 34.49 0.0005264282 3.069813
v 34.49 0.0005264282 -3.069813
v -34.49 17.50051 -3.069813
v -34.49 0.0005264282 -3.069813
v -32.848 16.67635 -3.069813
v -31.20494 15.87325 -3.069813
v -29.56294 15.08908 -3.069813
v -27.92093 14.32492 -3.069813
v -26.27787 13.5818 -3.069813
v -24.63587 12.85764 -3.069813
v -22.99281 12.15242 -3.069813
v -21.3508 11.46825 -3.069813
v -19.7088 10.80408 -3.069813
v -18.06574 10.15886 -3.069813
v -16.42374 9.53363 -3.069813
v -14.78173 8.928402 -3.069813
v -13.13867 8.343178 -3.069813
v -11.49667 7.777946 -3.069813
v -9.854664 7.231667 -3.069813
v -8.211605 6.706432 -3.069813
v -6.569599 6.20015 -3.069813
v -4.927593 5.713863 -3.069813
v -3.284538 5.247574 -3.069813
v -1.642532 4.801289 -3.069813
v -0.0005264282 4.374996 -3.069813
v 1.642532 3.968704 -3.069813
v 3.284536 3.58136 -3.069813
v 4.927593 3.214016 -3.069813
v 6.569599 2.866669 -3.069813
v 8.211603 2.539318 -3.069813
v 9.854662 2.231972 -3.069813
v 11.49667 1.944618 -3.069813
v 13.13867 1.676216 -3.069813
v 14.78173 1.42886 -3.069813
v 16.42373 1.200455 -3.069813
v 18.06574 0.9920464 -3.069813
v 19.7088 0.8036346 -3.069813
v 21.3508 0.6352234 -3.069813
v 22.99281 0.4857597 -3.069813
v 24.63586 0.3573456 -3.069813
v 26.27787 0.247879 -3.069813
v 27.92093 0.1584129 -3.069813
v 29.56293 0.08894348 -3.069813
v 31.20494 0.03947067 -3.069813
v 32.848 0.009998322 -3.069813
v 34.49 0.0005264282 -3.069813
v -34.49 0.0005264282 3.069813
v -34.49 17.50051 3.069813
v -32.848 16.67635 3.069813
v -31.20494 15.87325 3.069813
v -29.56294 15.08908 3.069813
v -27.92093 14.32492 3.069813
v -26.27787 13.5818 3.069813
v -24.63587 12.85764 3.069813
v -22.99281 12.15242 3.069813
v -21.3508 11.46825 3.069813
v -19.7088 10.80408 3.069813
v -18.06574 10.15886 3.069813
v -16.42374 9.53363 3.069813
v -14.78173 8.928402 3.069813
v -13.13867 8.343178 3.069813
v -11.49667 7.777946 3.069813
v -9.854664 7.231667 3.069813
v -8.211605 6.706432 3.069813
v -6.569599 6.20015 3.069813
v -4.927593 5.713863 3.069813
v -3.284538 5.247574 3.069813
v -1.642532 4.801289 3.069813
v -0.0005264282 4.374996 3.069813
v 1.642532 3.968704 3.069813
v 3.284536 3.58136 3.069813
v 4.927593 3.214016 3.069813
v 6.569599 2.866669 3.069813
v 8.211603 2.539318 3.069813
v 9.854662 2.231972 3.069813
v 11.49667 1.944618 3.069813
v 13.13867 1.676216 3.069813
v 14.78173 1.42886 3.069813
v 16.42373 1.200455 3.069813
v 18.06574 0.9920464 3.069813
v 19.7088 0.8036346 3.069813
v 21.3508 0.6352234 3.069813
v 22.99281 0.4857597 3.069813
v 24.63586 0.3573456 3.069813
v 26.27787 0.247879 3.069813
v 27.92093 0.1584129 3.069813
v 29.56293 0.08894348 3.069813
v 31.20494 0.03947067 3.069813
v 32.848 0.009998322 3.069813
v 34.49 0.0005264282 3.069813
vt 0 1
vt 1 0
vt 1 1
vt 0 0
vt 0 1
vt 1 0
vt 1 1
vt 0 0
vt 0 0
vt 0.02346041 1
vt 0 1
vt 0.02346041 0
vt 0.04789834 1
vt 0.04789834 0
vt 0.07135875 1
vt 0.07135875 0
vt 0.09481916 1
vt 0.09481916 0
vt 0.1192571 1
vt 0.1192571 0
vt 0.1427175 1
vt 0.1427175 0
vt 0.1671554 1
vt 0.1671554 0
vt 0.1906158 1
vt 0.1906158 0
vt 0.2140763 1
vt 0.2140763 0
vt 0.2385142 1
vt 0.2385142 0
vt 0.2619746 1
vt 0.2619746 0
vt 0.285435 1
vt 0.285435 0
vt 0.3098729 1
vt 0.3098729 0
vt 0.3333333 1
vt 0.3333333 0
vt 0.3567937 1
vt 0.3567937 0
vt 0.3812317 1
vt 0.3812317 0
vt 0.4046921 1
vt 0.4046921 0
vt 0.4281525 1
vt 0.4281525 0
vt 0.4525904 1
vt 0.4525904 0
vt 0.4760508 1
vt 0.4760508 0
vt 0.5004888 1
vt 0.5004888 0
vt 0.5239491 1
vt 0.5239491 0
vt 0.5474096 1
vt 0.5474096 0
vt 0.5718475 1
vt 0.5718475 0
vt 0.5953079 1
vt 0.5953079 0
vt 0.6187683 1
vt 0.6187683 0
vt 0.6432062 1
vt 0.6432062 0
vt 0.6666667 1
vt 0.6666667 0
vt 0.6901271 1
vt 0.6901271 0
vt 0.714565 1
vt 0.714565 0
vt 0.7380254 1
vt 0.7380254 0
vt 0.7614858 1
vt 0.7614858 0
vt 0.7859238 1
vt 0.7859238 0
vt 0.8093842 1
vt 0.8093842 0
vt 0.8338221 1
vt 0.8338221 0
vt 0.8572825 1
vt 0.8572825 0
vt 0.8807429 1
vt 0.8807429 0
vt 0.9051808 1
vt 0.9051808 0
vt 0.9286413 1
vt 0.9286413 0
vt 0.9521016 1
vt 0.9521016 0
vt 0.9765396 1
vt 0.9765396 0
vt 1 1
vt 1 0
vt 0 1
vt 0 0
vt 0.02346041 0.9530792
vt 0.04789834 0.9071359
vt 0.07135875 0.8621701
vt 0.09481916 0.8181818
vt 0.1192571 0.7761486
vt 0.1427175 0.7350929
vt 0.1671554 0.6940371
vt 0.1906158 0.6549364
vt 0.2140763 0.6177908
vt 0.2385142 0.5806451
vt 0.2619746 0.544477
vt 0.285435 0.5102639
vt 0.3098729 0.4770283
vt 0.3333333 0.4447703
vt 0.3567937 0.4134897
vt 0.3812317 0.3831867
vt 0.4046921 0.3538612
vt 0.4281525 0.3264907
vt 0.4525904 0.3000978
vt 0.4760508 0.2746823
vt 0.5004888 0.2502444
vt 0.5239491 0.226784
vt 0.5474096 0.2043011
vt 0.5718475 0.1837732
vt 0.5953079 0.1642229
vt 0.6187683 0.1446725
vt 0.6432062 0.1270772
vt 0.6666667 0.1114369
vt 0.6901271 0.09579667
vt 0.714565 0.08211144
vt 0.7380254 0.0684262
vt 0.7614858 0.05669599
vt 0.7859238 0.0459433
vt 0.8093842 0.03616813
vt 0.8338221 0.02737048
vt 0.8572825 0.02052786
vt 0.8807429 0.01368524
vt 0.9051808 0.008797654
vt 0.9286413 0.004887586
vt 0.9521016 0.001955034
vt 0.9765396 0.0009775171
vt 1 0
vt 1 0
vt 1 1
vt 0.9765396 0.9530792
vt 0.9521016 0.9071359
vt 0.9286413 0.8621701
vt 0.9051808 0.8181818
vt 0.8807429 0.7761486
vt 0.8572825 0.7350929
vt 0.8338221 0.6940371
vt 0.8093842 0.6549364
vt 0.7859238 0.6177908
vt 0.7614858 0.5806451
vt 0.7380254 0.544477
vt 0.714565 0.5102639
vt 0.6901271 0.4770283
vt 0.6666667 0.4447703
vt 0.6432062 0.4134897
vt 0.6187683 0.3831867
vt 0.5953079 0.3538612
vt 0.5718475 0.3264907
vt 0.5474096 0.3000978
vt 0.5239491 0.2746823
vt 0.5004888 0.2502444
vt 0.4760508 0.226784
vt 0.4525904 0.2043011
vt 0.4281525 0.1837732
vt 0.4046921 0.1642229
vt 0.3812317 0.1446725
vt 0.3567937 0.1270772
vt 0.3333333 0.1114369
vt 0.3098729 0.09579667
vt 0.285435 0.08211144
vt 0.2619746 0.0684262
vt 0.2385142 0.05669599
vt 0.2140763 0.0459433
vt 0.1906158 0.03616813
vt 0.1671554 0.02737048
vt 0.1427175 0.02052786
vt 0.1192571 0.01368524
vt 0.09481916 0.008797654
vt 0.07135875 0.004887586
vt 0.04789834 0.001955034
vt 0.02346041 0.0009775171
vt 0 0
vn -0.003921509 -0.9999924 0
vn -0.003921509 -0.9999924 0
vn -0.003921509 -0.9999924 0
vn -0.003921509 -0.9999924 0
vn -0.9999923 0.003921509 -0.0003449296
vn -0.9999923 0.003921509 -0.0003449296
vn -0.9999923 0.003921509 -0.0003449296
vn -0.9999923 0.003921509 -0.0003449296
vn 0.450977 0.8901892 -0.06467608
vn 0.4425083 0.8967644 0
vn 0.450977 0.8901892 -0.06467608
vn 0.4425083 0.8967644 0
vn 0.4352908 0.8980323 -0.06371696
vn 0.4352908 0.8980323 -0.06371696
vn 0.4267396 0.9043746 0
vn 0.4267396 0.9043746 0
vn 0.4196047 0.9058753 -0.05763529
vn 0.4196047 0.9058753 -0.05763529
vn 0.4108528 0.9117017 0
vn 0.4039185 0.9137185 -0.04436647
vn 0.4039185 0.9137185 -0.04436647
vn 0.3948628 0.9187401 0
vn 0.3882324 0.9215615 -0.0002441406
vn 0.3882324 0.9215615 -0.0002441406
vn 0.3803893 0.9215615 -0.07764286
vn 0.3787849 0.9254847 0
vn 0.3720658 0.9282063 0
vn 0.3720658 0.9282063 0
vn 0.3647031 0.9294046 -0.0565569
vn 0.3558327 0.9345496 0
vn 0.3489741 0.9371324 0
vn 0.3489741 0.9371324 0
vn 0.3411739 0.9372476 -0.07188356
vn 0.3411739 0.9372476 -0.07188356
vn 0.3326155 0.9430625 0
vn 0.3254877 0.9450908 -0.02934566
vn 0.3254877 0.9450908 -0.02934566
vn 0.3176447 0.9450908 -0.07684576
vn 0.3091746 0.9510053 0
vn 0.3091746 0.9510053 0
vn 0.3019585 0.9529338 -0.027171
vn 0.2941154 0.9529338 -0.0735755
vn 0.2941154 0.9529338 -0.0735755
vn 0.2855531 0.9583629 0
vn 0.2783437 0.9604815 0
vn 0.2783437 0.9604815 0
vn 0.2705862 0.9607769 -0.06075178
vn 0.2627431 0.9607769 -0.08873428
vn 0.2544934 0.9670746 0
vn 0.2544934 0.9670746 0
vn 0.247057 0.9686199 -0.027171
vn 0.247057 0.9686199 -0.027171
vn 0.2392139 0.9686199 -0.06746945
vn 0.2313708 0.9686199 -0.09079044
vn 0.2231437 0.9747856 0
vn 0.2231437 0.9747856 0
vn 0.2156847 0.9764631 0
vn 0.2078416 0.9764631 -0.05763477
vn 0.1999985 0.9764631 -0.0807493
vn 0.1999985 0.9764631 -0.0807493
vn 0.1916023 0.9814727 0
vn 0.1840521 0.9829164 0
vn 0.1764693 0.9843061 -0.000345267
vn 0.1764693 0.9843061 -0.000345267
vn 0.1686262 0.9843061 -0.05202602
vn 0.1686262 0.9843061 -0.05202602
vn 0.1607831 0.9843061 -0.07273465
vn 0.15294 0.9843061 -0.08803902
vn 0.1447058 0.9894747 0
vn 0.1447058 0.9894747 0
vn 0.1370349 0.9905662 0
vn 0.1293392 0.9916004 0
vn 0.1215677 0.9921492 -0.02934566
vn 0.1215677 0.9921492 -0.02934566
vn 0.1137246 0.9921492 -0.05202487
vn 0.1058816 0.9921492 -0.0665506
vn 0.09803849 0.9921492 -0.07764248
vn 0.09803849 0.9921492 -0.07764248
vn 0.08207513 0.9966261 0
vn 0.08207513 0.9966261 0
vn 0.07430387 0.9972357 0
vn 0.06651905 0.9977852 0
vn 0.05872206 0.9982743 0
vn 0.05872206 0.9982743 0
vn 0.05091431 0.998703 0
vn 0.04309721 0.9990709 0
vn 0.03527219 0.9993777 0
vn 0.03527219 0.9993777 0
vn 0.02744067 0.9996234 0
vn 0.01960411 0.9998079 0
vn 0.01176392 0.9999309 0
vn 0.01176392 0.9999309 0
vn 0.003921568 0.9999923 -0.000345267
vn 0.003921568 0.9999923 -0.000345267
vn -0.003921509 0.003921509 -0.9999846
vn -0.003921509 0.003921509 -0.9999846
vn -0.003921509 0.003921509 -0.9999846
vn -0.003921509 0.003921509 -0.9999846
vn -0.003921509 0.003921509 -0.9999846
vn -0.003921509 0.003921509 -0.9999846
vn -0.003921509 0.003921509 -0.9999846
vn -0.003921509 0.003921509 -0.9999846
vn -0.003921509 0.003921509 -0.9999846
vn -0.003921509 0.003921509 -0.9999846
vn -0.003921509 0.003921509 -0.9999846
vn -0.003921509 0.003921509 -0.9999846
vn -0.003921509 0.003921509 -0.9999846
vn -0.003921509 0.003921509 -0.9999846
vn -0.003921509 0.003921509 -0.9999846
vn -0.003921509 0.003921509 -0.9999846
vn -0.003921509 0.003921509 -0.9999846
vn -0.003921509 0.003921509 -0.9999846
vn -0.003921509 0.003921509 -0.9999846
vn -0.003921509 0.003921509 -0.9999846
vn -0.003921509 0.003921509 -0.9999846
vn -0.003921509 0.003921509 -0.9999846
vn -0.003921509 0.003921509 -0.9999846
vn -0.003921509 0.003921509 -0.9999846
vn -0.003921509 0.003921509 -0.9999846
vn -0.003921509 0.003921509 -0.9999846
vn -0.003921509 0.003921509 -0.9999846
vn -0.003921509 0.003921509 -0.9999846
vn -0.003921509 0.003921509 -0.9999846
vn -0.003921509 0.003921509 -0.9999846
vn -0.003921509 0.003921509 -0.9999846
vn -0.003921509 0.003921509 -0.9999846
vn -0.003921509 0.003921509 -0.9999846
vn -0.003921509 0.003921509 -0.9999846
vn -0.003921509 0.003921509 -0.9999846
vn -0.003921509 0.003921509 -0.9999846
vn -0.003921509 0.003921509 -0.9999846
vn -0.003921509 0.003921509 -0.9999846
vn -0.003921509 0.003921509 -0.9999846
vn -0.003921509 0.003921509 -0.9999846
vn -0.003921509 0.003921509 -0.9999846
vn -0.003921509 0.003921509 -0.9999846
vn -0.003921509 0.003921509 -0.9999846
vn -0.003921509 0.003921509 -0.9999846
vn -0.003921509 0.003921509 0.9999846
vn -0.003921509 0.003921509 0.9999846
vn -0.003921509 0.003921509 0.9999846
vn -0.003921509 0.003921509 0.9999846
vn -0.003921509 0.003921509 0.9999846
vn -0.003921509 0.003921509 0.9999846
vn -0.003921509 0.003921509 0.9999846
vn -0.003921509 0.003921509 0.9999846
vn -0.003921509 0.003921509 0.9999846
vn -0.003921509 0.003921509 0.9999846
vn -0.003921509 0.003921509 0.9999846
vn -0.003921509 0.003921509 0.9999846
vn -0.003921509 0.003921509 0.9999846
vn -0.003921509 0.003921509 0.9999846
vn -0.003921509 0.003921509 0.9999846
vn -0.003921509 0.003921509 0.9999846
vn -0.003921509 0.003921509 0.9999846
vn -0.003921509 0.003921509 0.9999846
vn -0.003921509 0.003921509 0.9999846
vn -0.003921509 0.003921509 0.9999846
vn -0.003921509 0.003921509 0.9999846
vn -0.003921509 0.003921509 0.9999846
vn -0.003921509 0.003921509 0.9999846
vn -0.003921509 0.003921509 0.9999846
vn -0.003921509 0.003921509 0.9999846
vn -0.003921509 0.003921509 0.9999846
vn -0.003921509 0.003921509 0.9999846
vn -0.003921509 0.003921509 0.9999846
vn -0.003921509 0.003921509 0.9999846
vn -0.003921509 0.003921509 0.9999846
vn -0.003921509 0.003921509 0.9999846
vn -0.003921509 0.003921509 0.9999846
vn -0.003921509 0.003921509 0.9999846
vn -0.003921509 0.003921509 0.9999846
vn -0.003921509 0.003921509 0.9999846
vn -0.003921509 0.003921509 0.9999846
vn -0.003921509 0.003921509 0.9999846
vn -0.003921509 0.003921509 0.9999846
vn -0.003921509 0.003921509 0.9999846
vn -0.003921509 0.003921509 0.9999846
vn -0.003921509 0.003921509 0.9999846
vn -0.003921509 0.003921509 0.9999846
vn -0.003921509 0.003921509 0.9999846
vn -0.003921509 0.003921509 0.9999846
g ArcPro_0
f 3/3/3 2/2/2 1/1/1
f 2/2/2 4/4/4 1/1/1
f 7/7/7 6/6/6 5/5/5
f 5/5/5 6/6/6 8/8/8
f 11/11/11 10/10/10 9/9/9
f 12/12/12 9/9/9 10/10/10
f 10/10/10 13/13/13 12/12/12
f 14/14/14 12/12/12 13/13/13
f 13/13/13 15/15/15 14/14/14
f 16/16/16 14/14/14 15/15/15
f 15/15/15 17/17/17 16/16/16
f 18/18/18 16/16/16 17/17/17
f 17/17/17 19/19/19 18/18/18
f 20/20/20 18/18/18 19/19/19
f 19/19/19 21/21/21 20/20/20
f 22/22/22 20/20/20 21/21/21
f 21/21/21 23/23/23 22/22/22
f 24/24/24 22/22/22 23/23/23
f 23/23/23 25/25/25 24/24/24
f 26/26/26 24/24/24 25/25/25
f 25/25/25 27/27/27 26/26/26
f 28/28/28 26/26/26 27/27/27
f 27/27/27 29/29/29 28/28/28
f 30/30/30 28/28/28 29/29/29
f 29/29/29 31/31/31 30/30/30
f 32/32/32 30/30/30 31/31/31
f 31/31/31 33/33/33 32/32/32
f 34/34/34 32/32/32 33/33/33
f 33/33/33 35/35/35 34/34/34
f 36/36/36 34/34/34 35/35/35
f 35/35/35 37/37/37 36/36/36
f 38/38/38 36/36/36 37/37/37
f 37/37/37 39/39/39 38/38/38
f 40/40/40 38/38/38 39/39/39
f 39/39/39 41/41/41 40/40/40
f 42/42/42 40/40/40 41/41/41
f 41/41/41 43/43/43 42/42/42
f 44/44/44 42/42/42 43/43/43
f 43/43/43 45/45/45 44/44/44
f 46/46/46 44/44/44 45/45/45
f 45/45/45 47/47/47 46/46/46
f 48/48/48 46/46/46 47/47/47
f 47/47/47 49/49/49 48/48/48
f 50/50/50 48/48/48 49/49/49
f 49/49/49 51/51/51 50/50/50
f 52/52/52 50/50/50 51/51/51
f 51/51/51 53/53/53 52/52/52
f 54/54/54 52/52/52 53/53/53
f 53/53/53 55/55/55 54/54/54
f 56/56/56 54/54/54 55/55/55
f 55/55/55 57/57/57 56/56/56
f 58/58/58 56/56/56 57/57/57
f 57/57/57 59/59/59 58/58/58
f 60/60/60 58/58/58 59/59/59
f 59/59/59 61/61/61 60/60/60
f 62/62/62 60/60/60 61/61/61
f 61/61/61 63/63/63 62/62/62
f 64/64/64 62/62/62 63/63/63
f 63/63/63 65/65/65 64/64/64
f 66/66/66 64/64/64 65/65/65
f 65/65/65 67/67/67 66/66/66
f 68/68/68 66/66/66 67/67/67
f 67/67/67 69/69/69 68/68/68
f 70/70/70 68/68/68 69/69/69
f 69/69/69 71/71/71 70/70/70
f 72/72/72 70/70/70 71/71/71
f 71/71/71 73/73/73 72/72/72
f 74/74/74 72/72/72 73/73/73
f 73/73/73 75/75/75 74/74/74
f 76/76/76 74/74/74 75/75/75
f 75/75/75 77/77/77 76/76/76
f 78/78/78 76/76/76 77/77/77
f 77/77/77 79/79/79 78/78/78
f 80/80/80 78/78/78 79/79/79
f 79/79/79 81/81/81 80/80/80
f 82/82/82 80/80/80 81/81/81
f 81/81/81 83/83/83 82/82/82
f 84/84/84 82/82/82 83/83/83
f 83/83/83 85/85/85 84/84/84
f 86/86/86 84/84/84 85/85/85
f 85/85/85 87/87/87 86/86/86
f 88/88/88 86/86/86 87/87/87
f 87/87/87 89/89/89 88/88/88
f 90/90/90 88/88/88 89/89/89
f 89/89/89 91/91/91 90/90/90
f 92/92/92 90/90/90 91/91/91
f 91/91/91 93/93/93 92/92/92
f 94/94/94 92/92/92 93/93/93
f 97/97/97 96/96/96 95/95/95
f 98/98/98 96/96/96 97/97/97
f 99/99/99 96/96/96 98/98/98
f 100/100/100 96/96/96 99/99/99
f 101/101/101 96/96/96 100/100/100
f 102/102/102 96/96/96 101/101/101
f 103/103/103 96/96/96 102/102/102
f 104/104/104 96/96/96 103/103/103
f 105/105/105 96/96/96 104/104/104
f 106/106/106 96/96/96 105/105/105
f 107/107/107 96/96/96 106/106/106
f 108/108/108 96/96/96 107/107/107
f 109/109/109 96/96/96 108/108/108
f 110/110/110 96/96/96 109/109/109
f 111/111/111 96/96/96 110/110/110
f 112/112/112 96/96/96 111/111/111
f 113/113/113 96/96/96 112/112/112
f 114/114/114 96/96/96 113/113/113
f 115/115/115 96/96/96 114/114/114
f 116/116/116 96/96/96 115/115/115
f 117/117/117 96/96/96 116/116/116
f 118/118/118 96/96/96 117/117/117
f 119/119/119 96/96/96 118/118/118
f 120/120/120 96/96/96 119/119/119
f 121/121/121 96/96/96 120/120/120
f 122/122/122 96/96/96 121/121/121
f 123/123/123 96/96/96 122/122/122
f 124/124/124 96/96/96 123/123/123
f 125/125/125 96/96/96 124/124/124
f 126/126/126 96/96/96 125/125/125
f 127/127/127 96/96/96 126/126/126
f 128/128/128 96/96/96 127/127/127
f 129/129/129 96/96/96 128/128/128
f 130/130/130 96/96/96 129/129/129
f 131/131/131 96/96/96 130/130/130
f 132/132/132 96/96/96 131/131/131
f 133/133/133 96/96/96 132/132/132
f 134/134/134 96/96/96 133/133/133
f 135/135/135 96/96/96 134/134/134
f 136/136/136 96/96/96 135/135/135
f 137/137/137 96/96/96 136/136/136
f 138/138/138 96/96/96 137/137/137
f 141/141/141 140/140/140 139/139/139
f 142/142/142 141/141/141 139/139/139
f 143/143/143 142/142/142 139/139/139
f 144/144/144 143/143/143 139/139/139
f 145/145/145 144/144/144 139/139/139
f 146/146/146 145/145/145 139/139/139
f 147/147/147 146/146/146 139/139/139
f 148/148/148 147/147/147 139/139/139
f 149/149/149 148/148/148 139/139/139
f 150/150/150 149/149/149 139/139/139
f 151/151/151 150/150/150 139/139/139
f 152/152/152 151/151/151 139/139/139
f 153/153/153 152/152/152 139/139/139
f 154/154/154 153/153/153 139/139/139
f 155/155/155 154/154/154 139/139/139
f 156/156/156 155/155/155 139/139/139
f 157/157/157 156/156/156 139/139/139
f 158/158/158 157/157/157 139/139/139
f 159/159/159 158/158/158 139/139/139
f 160/160/160 159/159/159 139/139/139
f 161/161/161 160/160/160 139/139/139
f 162/162/162 161/161/161 139/139/139
f 163/163/163 162/162/162 139/139/139
f 164/164/164 163/163/163 139/139/139
f 165/165/165 164/164/164 139/139/139
f 166/166/166 165/165/165 139/139/139
f 167/167/167 166/166/166 139/139/139
f 168/168/168 167/167/167 139/139/139
f 169/169/169 168/168/168 139/139/139
f 170/170/170 169/169/169 139/139/139
f 171/171/171 170/170/170 139/139/139
f 172/172/172 171/171/171 139/139/139
f 173/173/173 172/172/172 139/139/139
f 174/174/174 173/173/173 139/139/139
f 175/175/175 174/174/174 139/139/139
f 176/176/176 175/175/175 139/139/139
f 177/177/177 176/176/176 139/139/139
f 178/178/178 177/177/177 139/139/139
f 179/179/179 178/178/178 139/139/139
f 180/180/180 179/179/179 139/139/139
f 181/181/181 180/180/180 139/139/139
f 182/182/182 181/181/181 139/139/139
