g Sphere_cell
v -0.007458918 -0.01285976 -0.04462229
v 0.02126749 0.03688596 -0.03317843
v -0.007458918 0.04459304 -0.03317843
v -0.007458918 -0.01285976 -0.04462229
v 0.04205326 0.01586664 -0.03317843
v 0.02126749 0.03688596 -0.03317843
v -0.007458918 -0.01285976 -0.04462229
v 0.04976034 -0.01285976 -0.03317843
v 0.04205326 0.01586664 -0.03317843
v -0.007458918 -0.01285976 -0.04462229
v 0.04205326 -0.04135261 -0.03317843
v 0.04976034 -0.01285976 -0.03317843
v -0.007458918 -0.01285976 -0.04462229
v 0.02126749 -0.06237193 -0.03317843
v 0.04205326 -0.04135261 -0.03317843
v -0.007458918 -0.01285976 -0.04462229
v -0.007458918 -0.07007901 -0.03317843
v 0.02126749 -0.06237193 -0.03317843
v -0.007458918 -0.01285976 -0.04462229
v -0.03618531 -0.06237193 -0.03317843
v -0.007458918 -0.07007901 -0.03317843
v -0.007458918 -0.01285976 -0.04462229
v -0.05720463 -0.04135261 -0.03317843
v -0.03618531 -0.06237193 -0.03317843
v -0.007458918 -0.01285976 -0.04462229
v -0.06491172 -0.01285976 -0.03317843
v -0.05720463 -0.04135261 -0.03317843
v -0.007458918 -0.01285976 -0.04462229
v -0.05720463 0.01586664 -0.03317843
v -0.06491172 -0.01285976 -0.03317843
v -0.007458918 -0.01285976 -0.04462229
v -0.03618531 0.03688596 -0.03317843
v -0.05720463 0.01586664 -0.03317843
v -0.007458918 -0.01285976 -0.04462229
v -0.007458918 0.04459304 -0.03317843
v -0.03618531 0.03688596 -0.03317843
v 0.03948423 0.1132562 0.04809627
v 0.05162872 0.1099865 0.04809627
v 0.04695777 0.1118549 0.05136594
v -0.007458918 0.1146574 0.03151436
v -0.007458918 0.09340458 -0.0004817173
v 0.04555648 0.07915814 -0.0004817173
v 0.0598029 0.1039142 0.04249111
v 0.03948423 0.1132562 0.04809627
v 0.05162872 0.1099865 0.04809627
v -0.007458918 0.04459304 -0.03317843
v 0.02126749 0.03688596 -0.03317843
v 0.04555648 0.07915814 -0.0004817173
v -0.007458918 0.09340458 -0.0004817173
v 0.02126749 0.03688596 -0.03317843
v 0.04205326 0.01586664 -0.03317843
v 0.08432544 0.04015563 -0.0004817173
v 0.04555648 0.07915814 -0.0004817173
v 0.04555648 0.07915814 -0.0004817173
v 0.08432544 0.04015563 -0.0004817173
v 0.09646994 0.04716207 0.02030405
v 0.0598029 0.1039142 0.04249111
v 0.04205326 0.01586664 -0.03317843
v 0.04976034 -0.01285976 -0.03317843
v 0.09857187 -0.01285976 -0.0004817173
v 0.08432544 0.04015563 -0.0004817173
v 0.08432544 0.04015563 -0.0004817173
v 0.09857187 -0.01285976 -0.0004817173
v 0.1097822 -0.01285976 0.01633374
v 0.09646994 0.04716207 0.02030405
v 0.09857187 -0.01285976 -0.0004817173
v 0.08432544 -0.06587515 -0.0004817173
v 0.1013744 -0.07568417 0.02894533
v 0.1097822 -0.01285976 0.01633374
v 0.04976034 -0.01285976 -0.03317843
v 0.04205326 -0.04135261 -0.03317843
v 0.08432544 -0.06587515 -0.0004817173
v 0.09857187 -0.01285976 -0.0004817173
v 0.04555648 -0.1046441 -0.0004817173
v 0.04742486 -0.1081473 0.005590528
v 0.07872029 -0.08922995 0.01913631
v 0.08432544 -0.06587515 -0.0004817173
v 0.1013744 -0.07568417 0.02894533
v 0.04205326 -0.04135261 -0.03317843
v 0.02126749 -0.06237193 -0.03317843
v 0.04555648 -0.1046441 -0.0004817173
v 0.08432544 -0.06587515 -0.0004817173
v 0.02523781 -0.1100157 -0.0004817173
v 0.04555648 -0.1046441 -0.0004817173
v 0.02126749 -0.06237193 -0.03317843
v -0.007458918 -0.09553575 -0.01612943
v -0.007458918 -0.07007901 -0.03317843
v 0.04555648 -0.1046441 -0.0004817173
v 0.02523781 -0.1100157 -0.0004817173
v 0.03177714 -0.1116506 0.004422791
v 0.04742486 -0.1081473 0.005590528
v -0.007458918 -0.07007901 -0.03317843
v -0.03618531 -0.06237193 -0.03317843
v -0.04295821 -0.07404933 -0.02430361
v -0.007458918 -0.09553575 -0.01612943
v -0.03618531 -0.06237193 -0.03317843
v -0.05720463 -0.04135261 -0.03317843
v -0.07191816 -0.04999389 -0.02173458
v -0.04295821 -0.07404933 -0.02430361
v -0.05720463 -0.04135261 -0.03317843
v -0.06491172 -0.01285976 -0.03317843
v -0.1060162 -0.01285976 -0.005619772
v -0.07191816 -0.04999389 -0.02173458
v -0.06491172 -0.01285976 -0.03317843
v -0.05720463 0.01586664 -0.03317843
v -0.09947681 0.04015563 -0.0004817173
v -0.1060162 -0.01285976 -0.005619772
v -0.1116213 -0.00515268 -0.0004817173
v -0.09947681 0.04015563 -0.0004817173
v -0.06047431 0.07915814 -0.0004817173
v -0.06864849 0.09317103 0.02357373
v -0.1179271 0.05089884 0.03151436
v -0.05720463 0.01586664 -0.03317843
v -0.03618531 0.03688596 -0.03317843
v -0.06047431 0.07915814 -0.0004817173
v -0.09947681 0.04015563 -0.0004817173
v -0.06047431 0.07915814 -0.0004817173
v -0.007458918 0.09340458 -0.0004817173
v -0.007458918 0.1146574 0.03151436
v -0.06864849 0.09317103 0.02357373
v -0.03618531 0.03688596 -0.03317843
v -0.007458918 0.04459304 -0.03317843
v -0.007458918 0.09340458 -0.0004817173
v -0.06047431 0.07915814 -0.0004817173
v -0.007458918 -0.09553575 -0.01612943
v -0.04295821 -0.07404933 -0.02430361
v -0.07191816 -0.04999389 -0.02173458
v -0.1060162 -0.01285976 -0.005619772
v 0.02523781 -0.1100157 -0.0004817173
v -0.1116213 -0.00515268 -0.0004817173
v 0.03177714 -0.1116506 0.004422791
v -0.1120884 -0.00375139 0.000919573
v -0.007458918 -0.01285976 0.105082
v -0.127269 0.03361629 0.0385208
v 0.07872029 -0.08922995 0.01913631
v -0.007458918 -0.01285976 0.105082
v 0.1013744 -0.07568417 0.02894533
v 0.03177714 -0.1116506 0.004422791
v 0.04742486 -0.1081473 0.005590528
v -0.1120884 -0.00375139 0.000919573
v -0.1116213 -0.00515268 -0.0004817173
v -0.09947681 0.04015563 -0.0004817173
v -0.127269 0.03361629 0.0385208
v -0.1179271 0.05089884 0.03151436
v 0.09646994 0.04716207 0.02030405
v 0.1097822 -0.01285976 0.01633374
v 0.1013744 -0.07568417 0.02894533
v -0.007458918 -0.01285976 0.105082
v 0.0598029 0.1039142 0.04249111
v 0.05162872 0.1099865 0.04809627
v 0.04695777 0.1118549 0.05136594
v 0.03948423 0.1132562 0.04809627
v 0.04695777 0.1118549 0.05136594
v -0.007458918 -0.01285976 0.105082
v -0.007458918 0.1146574 0.03151436
v -0.127269 0.03361629 0.0385208
v -0.06864849 0.09317103 0.02357373
v -0.1179271 0.05089884 0.03151436
vn 0.05730599 0.1941646 -0.9792937
vn 0.05730599 0.1941646 -0.9792937
vn 0.05730599 0.1941646 -0.9792937
vn 0.1411296 0.1382823 -0.9802859
vn 0.1411296 0.1382823 -0.9802859
vn 0.1411296 0.1382823 -0.9802859
vn 0.1970119 0.05445874 -0.9788874
vn 0.1970119 0.05445874 -0.9788874
vn 0.1970119 0.05445874 -0.9788874
vn 0.1970119 -0.05730599 -0.9787248
vn 0.1970119 -0.05730599 -0.9787248
vn 0.1970119 -0.05730599 -0.9787248
vn 0.1411296 -0.1411296 -0.97988
vn 0.1411296 -0.1411296 -0.97988
vn 0.1411296 -0.1411296 -0.97988
vn 0.05730599 -0.1970119 -0.9787248
vn 0.05730599 -0.1970119 -0.9787248
vn 0.05730599 -0.1970119 -0.9787248
vn -0.05445874 -0.1970119 -0.9788874
vn -0.05445874 -0.1970119 -0.9788874
vn -0.05445874 -0.1970119 -0.9788874
vn -0.1382823 -0.1411296 -0.9802859
vn -0.1382823 -0.1411296 -0.9802859
vn -0.1382823 -0.1411296 -0.9802859
vn -0.1941646 -0.05730599 -0.9792937
vn -0.1941646 -0.05730599 -0.9792937
vn -0.1941646 -0.05730599 -0.9792937
vn -0.1941646 0.05445874 -0.9794562
vn -0.1941646 0.05445874 -0.9794562
vn -0.1941646 0.05445874 -0.9794562
vn -0.1382823 0.1382823 -0.9806916
vn -0.1382823 0.1382823 -0.9806916
vn -0.1382823 0.1382823 -0.9806916
vn -0.05445874 0.1941646 -0.9794562
vn -0.05445874 0.1941646 -0.9794562
vn -0.05445874 0.1941646 -0.9794562
vn 0.2528943 0.9485767 -0.1903857
vn 0.2528943 0.9485767 -0.1903857
vn 0.2528943 0.9485767 -0.1903857
vn 0.2249531 0.8088707 -0.5432534
vn 0.2249531 0.8088707 -0.5432534
vn 0.2249531 0.8088707 -0.5432534
vn 0.2249531 0.8088707 -0.5432534
vn 0.2249531 0.8088707 -0.5432534
vn 0.2249531 0.8088707 -0.5432534
vn 0.1411296 0.5574001 -0.8181611
vn 0.1411296 0.5574001 -0.8181611
vn 0.1411296 0.5574001 -0.8181611
vn 0.1411296 0.5574001 -0.8181611
vn 0.3926002 0.389753 -0.8330413
vn 0.3926002 0.389753 -0.8330413
vn 0.3926002 0.389753 -0.8330413
vn 0.3926002 0.389753 -0.8330413
vn 0.5881885 0.5853412 -0.5580412
vn 0.5881885 0.5853412 -0.5580412
vn 0.5881885 0.5853412 -0.5580412
vn 0.5881885 0.5853412 -0.5580412
vn 0.5602473 0.1382823 -0.8167012
vn 0.5602473 0.1382823 -0.8167012
vn 0.5602473 0.1382823 -0.8167012
vn 0.5602473 0.1382823 -0.8167012
vn 0.811718 0.2221059 -0.5401694
vn 0.811718 0.2221059 -0.5401694
vn 0.811718 0.2221059 -0.5401694
vn 0.811718 0.2221059 -0.5401694
vn 0.811718 -0.2249531 -0.5389898
vn 0.811718 -0.2249531 -0.5389898
vn 0.811718 -0.2249531 -0.5389898
vn 0.811718 -0.2249531 -0.5389898
vn 0.5602473 -0.1411296 -0.8162141
vn 0.5602473 -0.1411296 -0.8162141
vn 0.5602473 -0.1411296 -0.8162141
vn 0.5602473 -0.1411296 -0.8162141
vn 0.5881885 -0.5881885 -0.5550392
vn 0.5881885 -0.5881885 -0.5550392
vn 0.5881885 -0.5881885 -0.5550392
vn 0.5881885 -0.5881885 -0.5550392
vn 0.5881885 -0.5881885 -0.5550392
vn 0.3926002 -0.3926002 -0.8317032
vn 0.3926002 -0.3926002 -0.8317032
vn 0.3926002 -0.3926002 -0.8317032
vn 0.3926002 -0.3926002 -0.8317032
vn 0.1411296 -0.5602473 -0.8162141
vn 0.1411296 -0.5602473 -0.8162141
vn 0.1411296 -0.5602473 -0.8162141
vn 0.1411296 -0.5602473 -0.8162141
vn 0.1411296 -0.5602473 -0.8162141
vn 0.2249531 -0.811718 -0.5389898
vn 0.2249531 -0.811718 -0.5389898
vn 0.2249531 -0.811718 -0.5389898
vn 0.2249531 -0.811718 -0.5389898
vn -0.1382823 -0.5602473 -0.8167012
vn -0.1382823 -0.5602473 -0.8167012
vn -0.1382823 -0.5602473 -0.8167012
vn -0.1382823 -0.5602473 -0.8167012
vn -0.389753 -0.3926002 -0.8330413
vn -0.389753 -0.3926002 -0.8330413
vn -0.389753 -0.3926002 -0.8330413
vn -0.389753 -0.3926002 -0.8330413
vn -0.5574001 -0.1411296 -0.8181611
vn -0.5574001 -0.1411296 -0.8181611
vn -0.5574001 -0.1411296 -0.8181611
vn -0.5574001 -0.1411296 -0.8181611
vn -0.5574001 0.1382823 -0.8186471
vn -0.5574001 0.1382823 -0.8186471
vn -0.5574001 0.1382823 -0.8186471
vn -0.5574001 0.1382823 -0.8186471
vn -0.5574001 0.1382823 -0.8186471
vn -0.5853412 0.5853412 -0.5610271
vn -0.5853412 0.5853412 -0.5610271
vn -0.5853412 0.5853412 -0.5610271
vn -0.5853412 0.5853412 -0.5610271
vn -0.389753 0.389753 -0.8343772
vn -0.389753 0.389753 -0.8343772
vn -0.389753 0.389753 -0.8343772
vn -0.389753 0.389753 -0.8343772
vn -0.2221059 0.8088707 -0.5444238
vn -0.2221059 0.8088707 -0.5444238
vn -0.2221059 0.8088707 -0.5444238
vn -0.2221059 0.8088707 -0.5444238
vn -0.1382823 0.5574001 -0.8186471
vn -0.1382823 0.5574001 -0.8186471
vn -0.1382823 0.5574001 -0.8186471
vn -0.1382823 0.5574001 -0.8186471
vn -0.5294589 -0.6999533 0.4793107
vn -0.5294589 -0.6999533 0.4793107
vn -0.5294589 -0.6999533 0.4793107
vn -0.5294589 -0.6999533 0.4793107
vn -0.5294589 -0.6999533 0.4793107
vn -0.5294589 -0.6999533 0.4793107
vn -0.5294589 -0.6999533 0.4793107
vn -0.5294589 -0.6999533 0.4793107
vn -0.5294589 -0.6999533 0.4793107
vn -0.5294589 -0.6999533 0.4793107
vn 0.1131884 -0.6999533 0.7051623
vn 0.1131884 -0.6999533 0.7051623
vn 0.1131884 -0.6999533 0.7051623
vn 0.1131884 -0.6999533 0.7051623
vn 0.1131884 -0.6999533 0.7051623
vn -0.8088707 0.2221059 -0.5444238
vn -0.8088707 0.2221059 -0.5444238
vn -0.8088707 0.2221059 -0.5444238
vn -0.8088707 0.2221059 -0.5444238
vn -0.8088707 0.2221059 -0.5444238
vn 0.6161297 0.0823999 0.7833227
vn 0.6161297 0.0823999 0.7833227
vn 0.6161297 0.0823999 0.7833227
vn 0.6161297 0.0823999 0.7833227
vn 0.6161297 0.0823999 0.7833227
vn 0.6161297 0.0823999 0.7833227
vn 0.6161297 0.0823999 0.7833227
vn -0.2779882 0.4735765 0.8357319
vn -0.2779882 0.4735765 0.8357319
vn -0.2779882 0.4735765 0.8357319
vn -0.2779882 0.4735765 0.8357319
vn -0.2779882 0.4735765 0.8357319
vn -0.2779882 0.4735765 0.8357319
vn -0.2779882 0.4735765 0.8357319
g Sphere_cell_0
f 3/3/3 2/2/2 1/1/1
f 6/6/6 5/5/5 4/4/4
f 9/9/9 8/8/8 7/7/7
f 12/12/12 11/11/11 10/10/10
f 15/15/15 14/14/14 13/13/13
f 18/18/18 17/17/17 16/16/16
f 21/21/21 20/20/20 19/19/19
f 24/24/24 23/23/23 22/22/22
f 27/27/27 26/26/26 25/25/25
f 30/30/30 29/29/29 28/28/28
f 33/33/33 32/32/32 31/31/31
f 36/36/36 35/35/35 34/34/34
f 39/39/39 38/38/38 37/37/37
f 42/42/42 41/41/41 40/40/40
f 40/40/40 43/43/43 42/42/42
f 40/40/40 44/44/44 43/43/43
f 44/44/44 45/45/45 43/43/43
f 48/48/48 47/47/47 46/46/46
f 49/49/49 48/48/48 46/46/46
f 52/52/52 51/51/51 50/50/50
f 53/53/53 52/52/52 50/50/50
f 56/56/56 55/55/55 54/54/54
f 57/57/57 56/56/56 54/54/54
f 60/60/60 59/59/59 58/58/58
f 61/61/61 60/60/60 58/58/58
f 64/64/64 63/63/63 62/62/62
f 65/65/65 64/64/64 62/62/62
f 68/68/68 67/67/67 66/66/66
f 69/69/69 68/68/68 66/66/66
f 72/72/72 71/71/71 70/70/70
f 73/73/73 72/72/72 70/70/70
f 76/76/76 75/75/75 74/74/74
f 74/74/74 77/77/77 76/76/76
f 77/77/77 78/78/78 76/76/76
f 81/81/81 80/80/80 79/79/79
f 82/82/82 81/81/81 79/79/79
f 85/85/85 84/84/84 83/83/83
f 83/83/83 86/86/86 85/85/85
f 86/86/86 87/87/87 85/85/85
f 90/90/90 89/89/89 88/88/88
f 91/91/91 90/90/90 88/88/88
f 94/94/94 93/93/93 92/92/92
f 95/95/95 94/94/94 92/92/92
f 98/98/98 97/97/97 96/96/96
f 99/99/99 98/98/98 96/96/96
f 102/102/102 101/101/101 100/100/100
f 103/103/103 102/102/102 100/100/100
f 106/106/106 105/105/105 104/104/104
f 104/104/104 107/107/107 106/106/106
f 107/107/107 108/108/108 106/106/106
f 111/111/111 110/110/110 109/109/109
f 112/112/112 111/111/111 109/109/109
f 115/115/115 114/114/114 113/113/113
f 116/116/116 115/115/115 113/113/113
f 119/119/119 118/118/118 117/117/117
f 120/120/120 119/119/119 117/117/117
f 123/123/123 122/122/122 121/121/121
f 124/124/124 123/123/123 121/121/121
f 127/127/127 126/126/126 125/125/125
f 125/125/125 128/128/128 127/127/127
f 125/125/125 129/129/129 128/128/128
f 129/129/129 130/130/130 128/128/128
f 129/129/129 131/131/131 130/130/130
f 131/131/131 132/132/132 130/130/130
f 131/131/131 133/133/133 132/132/132
f 134/134/134 132/132/132 133/133/133
f 137/137/137 136/136/136 135/135/135
f 135/135/135 136/136/136 138/138/138
f 139/139/139 135/135/135 138/138/138
f 142/142/142 141/141/141 140/140/140
f 140/140/140 143/143/143 142/142/142
f 143/143/143 144/144/144 142/142/142
f 147/147/147 146/146/146 145/145/145
f 145/145/145 148/148/148 147/147/147
f 145/145/145 149/149/149 148/148/148
f 149/149/149 150/150/150 148/148/148
f 150/150/150 151/151/151 148/148/148
f 154/154/154 153/153/153 152/152/152
f 152/152/152 155/155/155 154/154/154
f 155/155/155 156/156/156 154/154/154
f 155/155/155 157/157/157 156/156/156
f 157/157/157 158/158/158 156/156/156
