g Sphere_cell_004
v 0.03006061 0.01879327 0.08815059
v 0.00145705 0.01094627 0.08815059
v 0.001203924 0.06840654 0.09928827
v 0.00145705 0.01094627 0.08815059
v -0.02714652 0.01879327 0.08815059
v 0.001203924 0.06840654 0.09928827
v -0.02714652 0.01879327 0.08815059
v -0.04815622 0.03980297 0.08815059
v 0.001203924 0.06840654 0.09928827
v -0.04815622 0.03980297 0.08815059
v -0.05600321 0.06840654 0.08815059
v 0.001203924 0.06840654 0.09928827
v -0.02005892 -0.06448615 -0.1080243
v 0.00145705 -0.07005498 -0.1080243
v 0.00145705 -0.05765166 -0.1265027
v -0.1025789 -0.01689792 0.006896213
v -0.06790027 -0.05157657 0.006896213
v -0.0734691 -0.0614486 -0.05031092
v -0.05195315 0.08283488 0.08815059
v -0.05600321 0.06840654 0.08815059
v -0.08764432 0.06840654 0.06688775
v 0.05107031 0.03954984 0.08815059
v 0.03006061 0.01879327 0.08815059
v 0.001203924 0.06840654 0.09928827
v 0.05461412 -0.02347927 0.05549696
v 0.00145705 -0.03765448 0.05549696
v 0.00145705 0.01094627 0.08815059
v 0.03006061 0.01879327 0.08815059
v 0.07081436 -0.05157657 -0.1080243
v 0.00145705 -0.07005498 -0.1080243
v 0.00145705 -0.08144578 -0.05056405
v 0.0763832 -0.0614486 -0.05056405
v 0.07081436 -0.05157657 0.006896213
v 0.00145705 -0.07005498 0.006896213
v 0.00145705 -0.03765448 0.05549696
v 0.05461412 -0.02347927 0.05549696
v 0.0763832 -0.0614486 -0.05056405
v 0.00145705 -0.08144578 -0.05056405
v 0.00145705 -0.07005498 0.006896213
v 0.07081436 -0.05157657 0.006896213
v 0.00145705 -0.07005498 -0.1080243
v -0.02005892 -0.06448615 -0.1080243
v -0.0734691 -0.0614486 -0.05031092
v 0.00145705 -0.08144578 -0.05056405
v 0.00145705 -0.07005498 0.006896213
v -0.06790027 -0.05157657 0.006896213
v -0.0514469 -0.02347927 0.05549696
v 0.00145705 -0.03765448 0.05549696
v 0.00145705 -0.08144578 -0.05056405
v -0.0734691 -0.0614486 -0.05031092
v -0.06790027 -0.05157657 0.006896213
v 0.00145705 -0.07005498 0.006896213
v 0.00145705 -0.03765448 0.05549696
v -0.0514469 -0.02347927 0.05549696
v -0.02714652 0.01879327 0.08815059
v 0.00145705 0.01094627 0.08815059
v -0.0514469 -0.02347927 0.05549696
v -0.09042874 0.01550259 0.05549696
v -0.04815622 0.03980297 0.08815059
v -0.02714652 0.01879327 0.08815059
v -0.0514469 -0.02347927 0.05549696
v -0.06790027 -0.05157657 0.006896213
v -0.1025789 -0.01689792 0.006896213
v -0.09042874 0.01550259 0.05549696
v -0.1076415 0.005377427 0.02562775
v -0.05600321 0.06840654 0.08815059
v -0.04815622 0.03980297 0.08815059
v -0.09042874 0.01550259 0.05549696
v -0.08764432 0.06840654 0.06688775
v -0.1028321 0.06182519 0.05549696
v -0.05600321 0.06840654 0.08815059
v -0.05195315 0.08283488 0.08815059
v -0.033981 0.08865684 0.09144126
v 0.001203924 0.06840654 0.09928827
v -0.09042874 0.01550259 0.05549696
v -0.1076415 0.005377427 0.02562775
v -0.1033383 0.0603064 0.05423132
v -0.1028321 0.06182519 0.05549696
v -0.1030852 0.06157205 0.05499069
v 0.1313122 -0.006772757 -0.05056405
v 0.0763832 -0.0614486 -0.05056405
v 0.07081436 -0.05157657 0.006896213
v 0.1214401 -0.0009507835 0.006896213
v 0.05663915 -0.02702306 -0.1502968
v 0.07081436 -0.05157657 -0.1080243
v 0.1214401 -0.0009507835 -0.1080243
v 0.08752088 -0.008291528 -0.136881
v 0.1103025 0.005377427 -0.1267558
v -0.1030852 0.06157205 0.05499069
v 0.00145705 0.0681534 -0.05056405
v -0.033981 0.08865684 0.09144126
v -0.1028321 0.06182519 0.05549696
v -0.08764432 0.06840654 0.06688775
v -0.05195315 0.08283488 0.08815059
v 0.00145705 0.0681534 -0.05056405
v 0.1103025 0.005377427 -0.1267558
v 0.1214401 -0.0009507835 -0.1080243
v 0.1313122 -0.006772757 -0.05056405
v -0.033981 0.08865684 0.09144126
v 0.1214401 -0.0009507835 0.006896213
v 0.09308971 0.01524946 0.05549696
v 0.05107031 0.03954984 0.08815059
v 0.001203924 0.06840654 0.09928827
v -0.1033383 0.0603064 0.05423132
v 0.00145705 0.0681534 -0.05056405
v -0.1030852 0.06157205 0.05499069
v -0.1076415 0.005377427 0.02562775
v -0.1025789 -0.01689792 0.006896213
v 0.04069202 -0.03056687 -0.1513094
v 0.00145705 -0.05765166 -0.1265027
v -0.0734691 -0.0614486 -0.05031092
v -0.02005892 -0.06448615 -0.1080243
v 0.08752088 -0.008291528 -0.136881
v 0.04069202 -0.03056687 -0.1513094
v 0.05663915 -0.02702306 -0.1502968
v 0.00145705 0.0681534 -0.05056405
v 0.1103025 0.005377427 -0.1267558
v 0.09308971 0.01524946 0.05549696
v 0.05461412 -0.02347927 0.05549696
v 0.03006061 0.01879327 0.08815059
v 0.05107031 0.03954984 0.08815059
v 0.1214401 -0.0009507835 0.006896213
v 0.07081436 -0.05157657 0.006896213
v 0.05461412 -0.02347927 0.05549696
v 0.09308971 0.01524946 0.05549696
v 0.1214401 -0.0009507835 -0.1080243
v 0.07081436 -0.05157657 -0.1080243
v 0.0763832 -0.0614486 -0.05056405
v 0.1313122 -0.006772757 -0.05056405
v 0.05663915 -0.02702306 -0.1502968
v 0.04069202 -0.03056687 -0.1513094
v 0.00145705 -0.05765166 -0.1265027
v 0.07081436 -0.05157657 -0.1080243
v 0.00145705 -0.07005498 -0.1080243
vn 0.04773319 -0.1978737 0.9790646
vn 0.04773319 -0.1978737 0.9790646
vn 0.04773319 -0.1978737 0.9790646
vn -0.04235107 -0.1978737 0.9793122
vn -0.04235107 -0.1978737 0.9793122
vn -0.04235107 -0.1978737 0.9793122
vn -0.1324354 -0.1378174 0.9815636
vn -0.1324354 -0.1378174 0.9815636
vn -0.1324354 -0.1378174 0.9815636
vn -0.1924915 -0.04773319 0.980137
vn -0.1924915 -0.04773319 0.980137
vn -0.1924915 -0.04773319 0.980137
vn -0.2225196 -0.7984354 -0.5594514
vn -0.2225196 -0.7984354 -0.5594514
vn -0.2225196 -0.7984354 -0.5594514
vn -0.702969 -0.7083512 0.06382118
vn -0.702969 -0.7083512 0.06382118
vn -0.702969 -0.7083512 0.06382118
vn -0.5528286 0.1324354 0.8227037
vn -0.5528286 0.1324354 0.8227037
vn -0.5528286 0.1324354 0.8227037
vn 0.1378174 -0.1378174 0.9808224
vn 0.1378174 -0.1378174 0.9808224
vn 0.1378174 -0.1378174 0.9808224
vn 0.1378174 -0.5582107 0.8181731
vn 0.1378174 -0.5582107 0.8181731
vn 0.1378174 -0.5582107 0.8181731
vn 0.1378174 -0.5582107 0.8181731
vn 0.2579298 -0.9485759 -0.1835101
vn 0.2579298 -0.9485759 -0.1835101
vn 0.2579298 -0.9485759 -0.1835101
vn 0.2579298 -0.9485759 -0.1835101
vn 0.2279018 -0.7984354 0.5572806
vn 0.2279018 -0.7984354 0.5572806
vn 0.2279018 -0.7984354 0.5572806
vn 0.2279018 -0.7984354 0.5572806
vn 0.2579298 -0.9485759 0.1835101
vn 0.2579298 -0.9485759 0.1835101
vn 0.2579298 -0.9485759 0.1835101
vn 0.2579298 -0.9485759 0.1835101
vn -0.2525477 -0.9485759 -0.1908493
vn -0.2525477 -0.9485759 -0.1908493
vn -0.2525477 -0.9485759 -0.1908493
vn -0.2525477 -0.9485759 -0.1908493
vn -0.2225196 -0.7984354 0.5594514
vn -0.2225196 -0.7984354 0.5594514
vn -0.2225196 -0.7984354 0.5594514
vn -0.2225196 -0.7984354 0.5594514
vn -0.2525477 -0.9485759 0.1908493
vn -0.2525477 -0.9485759 0.1908493
vn -0.2525477 -0.9485759 0.1908493
vn -0.2525477 -0.9485759 0.1908493
vn -0.1324354 -0.5582107 0.8190614
vn -0.1324354 -0.5582107 0.8190614
vn -0.1324354 -0.5582107 0.8190614
vn -0.1324354 -0.5582107 0.8190614
vn -0.4026882 -0.4080703 0.8193418
vn -0.4026882 -0.4080703 0.8193418
vn -0.4026882 -0.4080703 0.8193418
vn -0.4026882 -0.4080703 0.8193418
vn -0.5828567 -0.5882388 0.5605829
vn -0.5828567 -0.5882388 0.5605829
vn -0.5828567 -0.5882388 0.5605829
vn -0.5828567 -0.5882388 0.5605829
vn -0.5828567 -0.5882388 0.5605829
vn -0.5528286 -0.1378174 0.8218192
vn -0.5528286 -0.1378174 0.8218192
vn -0.5528286 -0.1378174 0.8218192
vn -0.5528286 -0.1378174 0.8218192
vn -0.5528286 -0.1378174 0.8218192
vn -0.1924915 0.04235107 0.9803843
vn -0.1924915 0.04235107 0.9803843
vn -0.1924915 0.04235107 0.9803843
vn -0.1924915 0.04235107 0.9803843
vn -0.8230814 -0.2279018 0.5201901
vn -0.8230814 -0.2279018 0.5201901
vn -0.8230814 -0.2279018 0.5201901
vn -0.8230814 -0.2279018 0.5201901
vn -0.8230814 -0.2279018 0.5201901
vn 0.7071068 -0.7071068 0
vn 0.7071068 -0.7071068 0
vn 0.7071068 -0.7071068 0
vn 0.7071068 -0.7071068 0
vn 0.5882388 -0.5882388 -0.5549325
vn 0.5882388 -0.5882388 -0.5549325
vn 0.5882388 -0.5882388 -0.5549325
vn 0.5882388 -0.5882388 -0.5549325
vn 0.5882388 -0.5882388 -0.5549325
vn -0.2525477 0.9431939 -0.215882
vn -0.2525477 0.9431939 -0.215882
vn -0.2525477 0.9431939 -0.215882
vn -0.2525477 0.9431939 -0.215882
vn -0.2525477 0.9431939 -0.215882
vn -0.2525477 0.9431939 -0.215882
vn 0.4981546 0.8531095 -0.1550681
vn 0.4981546 0.8531095 -0.1550681
vn 0.4981546 0.8531095 -0.1550681
vn 0.4981546 0.8531095 -0.1550681
vn 0.4981546 0.8531095 -0.1550681
vn 0.4981546 0.8531095 -0.1550681
vn 0.4981546 0.8531095 -0.1550681
vn 0.4981546 0.8531095 -0.1550681
vn 0.4981546 0.8531095 -0.1550681
vn -0.672941 0.4026882 -0.6204777
vn -0.672941 0.4026882 -0.6204777
vn -0.672941 0.4026882 -0.6204777
vn -0.672941 0.3726601 -0.6389639
vn -0.672941 0.3726601 -0.6389639
vn -0.672941 0.3726601 -0.6389639
vn -0.672941 0.3726601 -0.6389639
vn -0.672941 0.3726601 -0.6389639
vn -0.672941 0.3726601 -0.6389639
vn -0.1024073 0.702969 -0.7038091
vn -0.1024073 0.702969 -0.7038091
vn -0.1024073 0.702969 -0.7038091
vn -0.1024073 0.702969 -0.7038091
vn -0.1024073 0.702969 -0.7038091
vn 0.4080703 -0.4080703 0.8166746
vn 0.4080703 -0.4080703 0.8166746
vn 0.4080703 -0.4080703 0.8166746
vn 0.4080703 -0.4080703 0.8166746
vn 0.5882388 -0.5882388 0.5549325
vn 0.5882388 -0.5882388 0.5549325
vn 0.5882388 -0.5882388 0.5549325
vn 0.5882388 -0.5882388 0.5549325
vn 0.7071068 -0.7071068 0
vn 0.7071068 -0.7071068 0
vn 0.7071068 -0.7071068 0
vn 0.7071068 -0.7071068 0
vn 0.2279018 -0.7984354 -0.5572806
vn 0.2279018 -0.7984354 -0.5572806
vn 0.2279018 -0.7984354 -0.5572806
vn 0.2279018 -0.7984354 -0.5572806
vn 0.2279018 -0.7984354 -0.5572806
g Sphere_cell_004_0
f 3/3/3 2/2/2 1/1/1
f 6/6/6 5/5/5 4/4/4
f 9/9/9 8/8/8 7/7/7
f 12/12/12 11/11/11 10/10/10
f 15/15/15 14/14/14 13/13/13
f 18/18/18 17/17/17 16/16/16
f 21/21/21 20/20/20 19/19/19
f 24/24/24 23/23/23 22/22/22
f 27/27/27 26/26/26 25/25/25
f 28/28/28 27/27/27 25/25/25
f 31/31/31 30/30/30 29/29/29
f 32/32/32 31/31/31 29/29/29
f 35/35/35 34/34/34 33/33/33
f 36/36/36 35/35/35 33/33/33
f 39/39/39 38/38/38 37/37/37
f 40/40/40 39/39/39 37/37/37
f 43/43/43 42/42/42 41/41/41
f 44/44/44 43/43/43 41/41/41
f 47/47/47 46/46/46 45/45/45
f 48/48/48 47/47/47 45/45/45
f 51/51/51 50/50/50 49/49/49
f 52/52/52 51/51/51 49/49/49
f 55/55/55 54/54/54 53/53/53
f 56/56/56 55/55/55 53/53/53
f 59/59/59 58/58/58 57/57/57
f 60/60/60 59/59/59 57/57/57
f 63/63/63 62/62/62 61/61/61
f 61/61/61 64/64/64 63/63/63
f 64/64/64 65/65/65 63/63/63
f 68/68/68 67/67/67 66/66/66
f 66/66/66 69/69/69 68/68/68
f 69/69/69 70/70/70 68/68/68
f 73/73/73 72/72/72 71/71/71
f 74/74/74 73/73/73 71/71/71
f 77/77/77 76/76/76 75/75/75
f 75/75/75 78/78/78 77/77/77
f 78/78/78 79/79/79 77/77/77
f 82/82/82 81/81/81 80/80/80
f 83/83/83 82/82/82 80/80/80
f 86/86/86 85/85/85 84/84/84
f 84/84/84 87/87/87 86/86/86
f 87/87/87 88/88/88 86/86/86
f 91/91/91 90/90/90 89/89/89
f 89/89/89 92/92/92 91/91/91
f 92/92/92 93/93/93 91/91/91
f 93/93/93 94/94/94 91/91/91
f 97/97/97 96/96/96 95/95/95
f 95/95/95 98/98/98 97/97/97
f 95/95/95 99/99/99 98/98/98
f 99/99/99 100/100/100 98/98/98
f 99/99/99 101/101/101 100/100/100
f 99/99/99 102/102/102 101/101/101
f 99/99/99 103/103/103 102/102/102
f 106/106/106 105/105/105 104/104/104
f 107/107/107 104/104/104 105/105/105
f 108/108/108 107/107/107 105/105/105
f 108/108/108 105/105/105 109/109/109
f 108/108/108 109/109/109 110/110/110
f 111/111/111 108/108/108 110/110/110
f 110/110/110 112/112/112 111/111/111
f 115/115/115 114/114/114 113/113/113
f 114/114/114 116/116/116 113/113/113
f 113/113/113 116/116/116 117/117/117
f 120/120/120 119/119/119 118/118/118
f 121/121/121 120/120/120 118/118/118
f 124/124/124 123/123/123 122/122/122
f 125/125/125 124/124/124 122/122/122
f 128/128/128 127/127/127 126/126/126
f 129/129/129 128/128/128 126/126/126
f 132/132/132 131/131/131 130/130/130
f 130/130/130 133/133/133 132/132/132
f 133/133/133 134/134/134 132/132/132
